<?xml version="1.0" standalone="no"?>
<!DOCTYPE svg PUBLIC "-//W3C//DTD SVG 20010904//EN"
 "http://www.w3.org/TR/2001/REC-SVG-20010904/DTD/svg10.dtd">
<svg version="1.0" xmlns="http://www.w3.org/2000/svg"
 width="512.000000pt" height="512.000000pt" viewBox="0 0 512.000000 512.000000"
 preserveAspectRatio="xMidYMid meet">

<g transform="translate(0.000000,512.000000) scale(0.100000,-0.100000)"
fill="#000000" stroke="none">
<path d="M4076 4135 c-93 -49 -157 -96 -176 -127 -27 -45 -25 -106 6 -192 28
-77 47 -266 26 -266 -5 0 -13 12 -17 28 -15 64 -54 102 -219 211 -117 78 -174
110 -205 115 -115 18 -228 -69 -239 -183 -9 -98 29 -156 158 -241 44 -29 80
-55 80 -57 0 -3 -12 3 -27 13 -212 139 -397 216 -683 285 -328 80 -506 63
-698 -65 -71 -47 -209 -178 -264 -251 -39 -52 -29 -52 -227 -3 -155 37 -260
76 -370 135 -192 103 -180 98 -266 98 -61 0 -90 -5 -122 -21 l-41 -21 -96 88
c-53 48 -116 97 -139 108 -96 46 -333 53 -401 12 -66 -41 -88 -146 -43 -209
44 -63 361 -438 389 -461 49 -39 142 -72 209 -73 l60 -1 247 -204 c161 -133
270 -215 312 -236 l65 -32 201 1 200 1 28 -44 c16 -24 26 -46 23 -49 -3 -3
-69 -36 -146 -73 l-142 -68 -82 81 c-337 330 -858 336 -1201 15 -409 -382
-352 -1044 116 -1355 195 -130 462 -176 688 -118 149 38 306 131 416 245 110
116 178 240 214 390 10 45 21 83 23 85 2 2 72 -95 156 -216 83 -120 163 -228
178 -240 25 -19 39 -20 319 -20 l293 0 20 26 c24 30 26 43 10 77 -20 43 -45
47 -312 48 l-252 0 -135 195 c-74 108 -136 200 -138 205 -2 5 79 9 195 9 l199
0 33 -33 c43 -45 108 -77 185 -90 110 -19 251 32 322 115 29 35 68 110 78 150
l6 26 99 -44 c124 -54 226 -81 361 -96 58 -6 106 -12 108 -13 1 -1 -11 -69
-27 -151 -17 -82 -33 -177 -37 -211 l-6 -62 -215 -3 c-212 -3 -215 -3 -234
-27 -26 -32 -24 -73 4 -99 23 -21 31 -22 261 -22 269 0 280 2 315 72 11 24 21
38 21 32 0 -20 140 -163 204 -208 83 -60 190 -111 283 -138 66 -19 101 -23
223 -22 127 1 156 4 233 27 155 48 279 121 387 229 306 306 332 808 60 1147
-42 51 -49 65 -40 81 41 77 -47 173 -237 256 -86 37 -89 34 82 65 137 24 184
46 214 99 33 59 27 104 -45 322 -75 227 -130 344 -205 438 -145 179 -443 509
-473 524 -48 23 -96 20 -150 -9z m289 -355 c175 -202 193 -225 171 -228 -41
-5 -100 16 -129 45 -14 16 -82 111 -151 213 -86 127 -121 187 -113 192 7 4 15
7 19 5 4 -1 95 -103 203 -227z m-186 -124 c147 -216 179 -239 374 -257 62 -6
116 -14 120 -18 13 -13 78 -202 72 -212 -4 -5 -17 -9 -31 -9 -38 0 -132 -36
-171 -66 -55 -42 -75 -81 -70 -139 2 -27 7 -59 11 -71 7 -19 1 -22 -61 -39
-179 -47 -404 -149 -516 -233 l-65 -50 -53 55 c-114 116 -290 224 -446 274
-40 13 -73 26 -73 29 0 6 230 115 410 193 244 106 350 209 395 384 19 71 19
189 1 266 -7 31 -12 57 -11 57 2 0 53 -74 114 -164z m-566 8 l146 -96 34 -102
34 -103 -48 -33 c-27 -18 -51 -31 -53 -29 -2 2 -16 42 -31 89 -15 47 -35 93
-44 102 -9 10 -68 52 -131 95 -93 63 -116 83 -118 105 -3 29 27 68 52 68 8 0
80 -43 159 -96z m-3131 -7 c20 -8 80 -57 135 -108 54 -50 146 -132 206 -181
59 -50 107 -94 107 -98 0 -8 -121 -51 -180 -64 -34 -7 -107 11 -143 36 -29 21
-367 421 -367 434 0 13 205 -3 242 -19z m2263 -81 c221 -53 360 -104 494 -183
l44 -25 -252 -124 c-378 -185 -472 -238 -541 -307 -33 -32 -72 -81 -87 -108
-16 -27 -31 -48 -34 -46 -14 6 -444 489 -447 503 -2 8 45 63 110 127 119 118
186 163 289 192 87 24 244 14 424 -29z m-1680 -127 c166 -99 354 -168 583
-215 l133 -28 71 -78 c46 -51 65 -79 56 -82 -36 -12 -275 -56 -306 -56 -77 0
-109 20 -380 243 -147 120 -276 227 -287 238 -19 19 -19 19 20 19 29 0 60 -11
110 -41z m2475 -198 l35 -19 -95 -43 c-147 -67 -504 -245 -590 -295 -43 -24
-99 -63 -125 -86 -58 -51 -135 -160 -164 -230 l-21 -53 -80 0 c-44 0 -80 1
-80 3 0 1 27 57 61 125 94 191 102 197 474 384 492 248 509 254 585 214z
m-2299 -228 c170 -139 230 -173 323 -180 60 -5 63 -7 94 -51 18 -27 28 -50 23
-55 -5 -5 -64 -7 -132 -5 -93 2 -133 7 -159 20 -43 22 -433 342 -431 354 1 10
85 42 112 43 9 1 85 -56 170 -126z m3570 -44 c15 -48 10 -53 -58 -63 -47 -6
-133 22 -133 43 0 21 96 57 157 60 18 1 25 -7 34 -40z m-2640 -205 l132 -146
-48 -99 c-28 -55 -66 -115 -86 -135 l-37 -36 -171 253 c-94 139 -169 254 -168
256 3 2 211 48 239 52 4 1 66 -65 139 -145z m1058 -6 c100 -26 212 -75 297
-130 79 -51 190 -150 199 -178 4 -12 -8 -39 -31 -75 -50 -79 -107 -201 -152
-325 l-37 -105 -45 -3 c-114 -8 -312 39 -444 105 -106 53 -143 81 -170 128
-25 42 -119 135 -137 135 -14 0 -10 71 7 131 39 134 134 253 249 317 56 30 65
32 124 26 36 -3 99 -15 140 -26z m1241 -169 c67 -17 247 -95 238 -104 -5 -5
-380 -135 -389 -135 -11 0 -90 251 -83 262 8 13 143 0 234 -23z m-255 -423
c125 -385 127 -398 71 -412 -54 -13 -59 -3 -177 359 -62 188 -114 347 -116
354 -6 14 88 77 98 66 4 -5 60 -170 124 -367z m-3151 332 c39 -11 101 -35 138
-55 73 -38 203 -141 203 -161 0 -6 -33 -28 -73 -47 l-74 -35 -39 34 c-174 148
-433 165 -644 42 -66 -39 -155 -133 -193 -203 -43 -81 -62 -161 -62 -261 0
-159 51 -283 160 -392 117 -117 243 -165 415 -158 156 7 269 58 377 171 49 51
128 192 128 228 0 16 8 19 54 19 29 0 68 3 85 6 28 6 31 4 31 -18 0 -73 -87
-250 -167 -338 -225 -248 -575 -308 -878 -152 -96 50 -237 191 -287 287 -211
408 -16 888 417 1029 122 39 277 41 409 4z m1486 -178 c0 -64 19 -102 67 -131
87 -52 123 -107 123 -190 0 -74 -31 -134 -88 -170 -89 -56 -182 -46 -266 31
-57 52 -76 60 -145 60 l-60 0 -7 35 c-3 19 -4 65 -2 103 10 173 154 307 336
311 l42 1 0 -50z m-553 -39 l52 -79 -15 -51 c-10 -33 -14 -81 -12 -141 l3 -90
-118 0 c-127 0 -159 -9 -193 -53 l-19 -25 -430 -20 c-241 -12 -434 -17 -439
-12 -5 5 0 13 10 20 22 13 1097 528 1104 529 3 0 28 -35 57 -78z m1891 20 l20
-59 -54 -53 c-209 -206 -202 -561 15 -778 101 -101 227 -151 381 -151 152 0
281 51 385 154 68 67 125 156 125 197 0 37 -34 69 -74 69 -36 0 -63 -23 -91
-79 -27 -54 -101 -120 -173 -154 -62 -30 -75 -32 -172 -32 -99 0 -110 2 -172
33 -179 88 -270 298 -208 481 24 71 78 158 90 144 4 -4 33 -88 64 -186 62
-194 86 -234 161 -268 112 -51 248 12 284 130 17 58 15 66 -45 256 -30 97 -53
179 -50 182 3 3 30 -6 59 -21 71 -34 151 -120 187 -200 22 -48 36 -66 57 -74
47 -16 102 16 103 60 1 64 -92 213 -176 280 -52 43 -61 33 70 79 l69 24 46
-52 c173 -193 224 -463 136 -716 -33 -96 -79 -169 -159 -254 -105 -112 -220
-177 -368 -207 -335 -69 -674 108 -807 422 l-22 53 41 165 c61 248 129 423
211 549 24 36 44 65 45 65 1 0 11 -26 22 -59z m-2855 -129 c37 -17 67 -35 67
-40 0 -5 -80 -47 -177 -93 -97 -46 -189 -97 -204 -112 -61 -61 -59 -164 5
-226 50 -49 78 -52 304 -40 112 6 207 8 210 4 12 -12 -41 -95 -94 -145 -30
-28 -80 -63 -111 -78 -52 -24 -70 -27 -163 -27 -97 0 -110 2 -172 32 -85 40
-151 106 -191 191 -30 62 -32 75 -32 172 0 93 3 112 27 162 30 65 95 139 153
176 111 71 258 80 378 24z"/>
</g>
</svg>
