<?xml version="1.0" standalone="no"?>
<!DOCTYPE svg PUBLIC "-//W3C//DTD SVG 20010904//EN"
 "http://www.w3.org/TR/2001/REC-SVG-20010904/DTD/svg10.dtd">
<svg version="1.0" xmlns="http://www.w3.org/2000/svg"
 width="512.000000pt" height="512.000000pt" viewBox="0 0 512.000000 512.000000"
 preserveAspectRatio="xMidYMid meet">

<g transform="translate(0.000000,512.000000) scale(0.100000,-0.100000)"
fill="#000000" stroke="none">
<path d="M2360 5104 c-526 -84 -942 -484 -1056 -1014 -26 -119 -26 -381 0
-500 55 -257 169 -466 355 -651 153 -154 303 -247 504 -314 322 -107 681 -77
990 82 227 117 433 327 551 561 83 164 136 388 136 572 0 240 -81 509 -213
705 -56 83 -77 108 -170 203 -166 169 -383 288 -627 343 -118 27 -345 33 -470
13z m369 -429 c99 -21 215 -67 290 -117 401 -262 513 -795 249 -1189 -263
-394 -786 -498 -1181 -236 -190 127 -316 316 -364 545 -23 116 -14 300 22 412
95 300 331 516 640 585 81 18 258 18 344 0z"/>
<path d="M2300 2115 c-619 -85 -1168 -476 -1449 -1031 -126 -249 -192 -495
-207 -773 -8 -145 2 -188 59 -245 99 -99 263 -80 333 39 23 40 27 61 35 183
30 485 262 896 657 1164 378 256 867 323 1305 177 215 -71 414 -195 577 -359
273 -274 415 -592 439 -982 8 -122 12 -143 35 -183 70 -118 234 -138 331 -40
58 57 70 106 61 250 -28 469 -209 886 -531 1224 -301 316 -701 520 -1131 576
-138 18 -382 18 -514 0z"/>
</g>
</svg>
