<?xml version="1.0" encoding="UTF-8"?>
<svg xmlns="http://www.w3.org/2000/svg" id="Layer_1" data-name="Layer 1" viewBox="0 0 24 24" width="512" height="512"><path d="m23.5,9.5h.5v-4c0-1.379-1.121-2.5-2.5-2.5H2.5c-1.379,0-2.5,1.121-2.5,2.5v13c0,1.379,1.121,2.5,2.5,2.5h19c1.379,0,2.5-1.121,2.5-2.5v-4h-.5c-1.379,0-2.5-1.121-2.5-2.5s1.121-2.5,2.5-2.5Zm-3.5,2.5c0,1.76,1.306,3.221,3,3.465v3.035c0,.827-.673,1.5-1.5,1.5H2.5c-.827,0-1.5-.673-1.5-1.5V5.5c0-.827.673-1.5,1.5-1.5h19c.827,0,1.5.673,1.5,1.5v3.035c-1.694.244-3,1.705-3,3.465Zm-4.75-1.5h-1.01l-1.729-2.16c-.282-.518-.824-.84-1.415-.84h-1.83l1.184,3h-.352l-.911-.624c-.562-.567-1.611-.431-2.013.262-.231.398-.233.876.048,1.352l1.695,2.011h1.519l-1.167,3h1.845c.59,0,1.132-.321,1.368-.77l1.761-2.23h2.758v-1.5c0-.883-.72-1.5-1.75-1.5Zm.75,2h-2.242l-2.107,2.681c-.107.197-.313.319-.537.319h-.382l1.167-3h-2.518l-1.343-1.581c-.072-.126-.023-.237,0-.279.037-.063.15-.326.508,0l1.239.861h2.132l-1.184-3h.361c.225,0,.43.122.585.391l2.078,2.609h1.491c.362,0,.75.132.75.5v.5ZM4,5h1v2h-1v-2Zm0,4h1v2h-1v-2Zm0,4h1v2h-1v-2Zm0,4h1v2h-1v-2Z"/></svg>
